<svg xmlns="http://www.w3.org/2000/svg" xmlns:xlink="http://www.w3.org/1999/xlink" version="1.1" class="marks" width="758" height="366" viewBox="0 0 758 366"><rect width="758" height="366" fill="white"/><g fill="none" stroke-miterlimit="10" transform="translate(107,43)"><g class="mark-group role-frame root" role="graphics-object" aria-roledescription="group mark container"><g transform="translate(0,0)"><path class="background" aria-hidden="true" d="M0,0h0v300h0Z"/><g><g class="mark-group role-scope concat_0_group" role="graphics-object" aria-roledescription="group mark container"><g transform="translate(0,0)"><path class="background" aria-hidden="true" d="M0.5,0.5h300v300h-300Z" stroke="#ddd"/><g><g class="mark-group role-axis" aria-hidden="true"><g transform="translate(0.5,300.5)"><path class="background" aria-hidden="true" d="M0,0h0v0h0Z" pointer-events="none"/><g><g class="mark-rule role-axis-grid" pointer-events="none"><line transform="translate(0,-300)" x2="0" y2="300" stroke="#ddd" stroke-width="1" opacity="1"/><line transform="translate(30,-300)" x2="0" y2="300" stroke="#ddd" stroke-width="1" opacity="1"/><line transform="translate(60,-300)" x2="0" y2="300" stroke="#ddd" stroke-width="1" opacity="1"/><line transform="translate(90,-300)" x2="0" y2="300" stroke="#ddd" stroke-width="1" opacity="1"/><line transform="translate(120,-300)" x2="0" y2="300" stroke="#ddd" stroke-width="1" opacity="1"/><line transform="translate(150,-300)" x2="0" y2="300" stroke="#ddd" stroke-width="1" opacity="1"/><line transform="translate(180,-300)" x2="0" y2="300" stroke="#ddd" stroke-width="1" opacity="1"/><line transform="translate(210,-300)" x2="0" y2="300" stroke="#ddd" stroke-width="1" opacity="1"/><line transform="translate(240,-300)" x2="0" y2="300" stroke="#ddd" stroke-width="1" opacity="1"/><line transform="translate(270,-300)" x2="0" y2="300" stroke="#ddd" stroke-width="1" opacity="1"/><line transform="translate(300,-300)" x2="0" y2="300" stroke="#ddd" stroke-width="1" opacity="1"/></g></g><path class="foreground" aria-hidden="true" d="" pointer-events="none" display="none"/></g></g><g class="mark-group role-axis" aria-hidden="true"><g transform="translate(0.5,0.5)"><path class="background" aria-hidden="true" d="M0,0h0v0h0Z" pointer-events="none"/><g><g class="mark-rule role-axis-grid" pointer-events="none"><line transform="translate(0,300)" x2="300" y2="0" stroke="#ddd" stroke-width="1" opacity="1"/><line transform="translate(0,270)" x2="300" y2="0" stroke="#ddd" stroke-width="1" opacity="1"/><line transform="translate(0,240)" x2="300" y2="0" stroke="#ddd" stroke-width="1" opacity="1"/><line transform="translate(0,210)" x2="300" y2="0" stroke="#ddd" stroke-width="1" opacity="1"/><line transform="translate(0,180)" x2="300" y2="0" stroke="#ddd" stroke-width="1" opacity="1"/><line transform="translate(0,150)" x2="300" y2="0" stroke="#ddd" stroke-width="1" opacity="1"/><line transform="translate(0,120)" x2="300" y2="0" stroke="#ddd" stroke-width="1" opacity="1"/><line transform="translate(0,90)" x2="300" y2="0" stroke="#ddd" stroke-width="1" opacity="1"/><line transform="translate(0,60)" x2="300" y2="0" stroke="#ddd" stroke-width="1" opacity="1"/><line transform="translate(0,30)" x2="300" y2="0" stroke="#ddd" stroke-width="1" opacity="1"/><line transform="translate(0,0)" x2="300" y2="0" stroke="#ddd" stroke-width="1" opacity="1"/></g></g><path class="foreground" aria-hidden="true" d="" pointer-events="none" display="none"/></g></g><g class="mark-group role-axis" role="graphics-symbol" aria-roledescription="axis" aria-label="X-axis for a linear scale with values from 0.0 to 1.0"><g transform="translate(0.5,300.5)"><path class="background" aria-hidden="true" d="M0,0h0v0h0Z" pointer-events="none"/><g><g class="mark-rule role-axis-tick" pointer-events="none"><line transform="translate(0,0)" x2="0" y2="5" stroke="#888" stroke-width="1" opacity="1"/><line transform="translate(30,0)" x2="0" y2="5" stroke="#888" stroke-width="1" opacity="1"/><line transform="translate(60,0)" x2="0" y2="5" stroke="#888" stroke-width="1" opacity="1"/><line transform="translate(90,0)" x2="0" y2="5" stroke="#888" stroke-width="1" opacity="1"/><line transform="translate(120,0)" x2="0" y2="5" stroke="#888" stroke-width="1" opacity="1"/><line transform="translate(150,0)" x2="0" y2="5" stroke="#888" stroke-width="1" opacity="1"/><line transform="translate(180,0)" x2="0" y2="5" stroke="#888" stroke-width="1" opacity="1"/><line transform="translate(210,0)" x2="0" y2="5" stroke="#888" stroke-width="1" opacity="1"/><line transform="translate(240,0)" x2="0" y2="5" stroke="#888" stroke-width="1" opacity="1"/><line transform="translate(270,0)" x2="0" y2="5" stroke="#888" stroke-width="1" opacity="1"/><line transform="translate(300,0)" x2="0" y2="5" stroke="#888" stroke-width="1" opacity="1"/></g><g class="mark-text role-axis-label" pointer-events="none"><text text-anchor="start" transform="translate(0,15)" font-family="sans-serif" font-size="10px" fill="#000" opacity="1">0.0</text><text text-anchor="middle" transform="translate(30,15)" font-family="sans-serif" font-size="10px" fill="#000" opacity="1">0.1</text><text text-anchor="middle" transform="translate(60,15)" font-family="sans-serif" font-size="10px" fill="#000" opacity="1">0.2</text><text text-anchor="middle" transform="translate(90,15)" font-family="sans-serif" font-size="10px" fill="#000" opacity="1">0.3</text><text text-anchor="middle" transform="translate(120,15)" font-family="sans-serif" font-size="10px" fill="#000" opacity="1">0.4</text><text text-anchor="middle" transform="translate(150,15)" font-family="sans-serif" font-size="10px" fill="#000" opacity="1">0.5</text><text text-anchor="middle" transform="translate(180,15)" font-family="sans-serif" font-size="10px" fill="#000" opacity="1">0.6</text><text text-anchor="middle" transform="translate(210,15)" font-family="sans-serif" font-size="10px" fill="#000" opacity="1">0.7</text><text text-anchor="middle" transform="translate(240,15)" font-family="sans-serif" font-size="10px" fill="#000" opacity="1">0.8</text><text text-anchor="middle" transform="translate(270,15)" font-family="sans-serif" font-size="10px" fill="#000" opacity="1">0.9</text><text text-anchor="end" transform="translate(300,15)" font-family="sans-serif" font-size="10px" fill="#000" opacity="1">1.0</text></g><g class="mark-rule role-axis-domain" pointer-events="none"><line transform="translate(0,0)" x2="300" y2="0" stroke="#888" stroke-width="1" opacity="1"/></g></g><path class="foreground" aria-hidden="true" d="" pointer-events="none" display="none"/></g></g><g class="mark-group role-axis" role="graphics-symbol" aria-roledescription="axis" aria-label="Y-axis for a linear scale with values from −1.0 to 1.0"><g transform="translate(0.5,0.5)"><path class="background" aria-hidden="true" d="M0,0h0v0h0Z" pointer-events="none"/><g><g class="mark-rule role-axis-tick" pointer-events="none"><line transform="translate(0,300)" x2="-5" y2="0" stroke="#888" stroke-width="1" opacity="1"/><line transform="translate(0,270)" x2="-5" y2="0" stroke="#888" stroke-width="1" opacity="1"/><line transform="translate(0,240)" x2="-5" y2="0" stroke="#888" stroke-width="1" opacity="1"/><line transform="translate(0,210)" x2="-5" y2="0" stroke="#888" stroke-width="1" opacity="1"/><line transform="translate(0,180)" x2="-5" y2="0" stroke="#888" stroke-width="1" opacity="1"/><line transform="translate(0,150)" x2="-5" y2="0" stroke="#888" stroke-width="1" opacity="1"/><line transform="translate(0,120)" x2="-5" y2="0" stroke="#888" stroke-width="1" opacity="1"/><line transform="translate(0,90)" x2="-5" y2="0" stroke="#888" stroke-width="1" opacity="1"/><line transform="translate(0,60)" x2="-5" y2="0" stroke="#888" stroke-width="1" opacity="1"/><line transform="translate(0,30)" x2="-5" y2="0" stroke="#888" stroke-width="1" opacity="1"/><line transform="translate(0,0)" x2="-5" y2="0" stroke="#888" stroke-width="1" opacity="1"/></g><g class="mark-text role-axis-label" pointer-events="none"><text text-anchor="end" transform="translate(-7,303)" font-family="sans-serif" font-size="10px" fill="#000" opacity="1">−1.0</text><text text-anchor="end" transform="translate(-7,273)" font-family="sans-serif" font-size="10px" fill="#000" opacity="1">−0.8</text><text text-anchor="end" transform="translate(-7,243)" font-family="sans-serif" font-size="10px" fill="#000" opacity="1">−0.6</text><text text-anchor="end" transform="translate(-7,213)" font-family="sans-serif" font-size="10px" fill="#000" opacity="1">−0.4</text><text text-anchor="end" transform="translate(-7,183)" font-family="sans-serif" font-size="10px" fill="#000" opacity="1">−0.2</text><text text-anchor="end" transform="translate(-7,153)" font-family="sans-serif" font-size="10px" fill="#000" opacity="1">0.0</text><text text-anchor="end" transform="translate(-7,123)" font-family="sans-serif" font-size="10px" fill="#000" opacity="1">0.2</text><text text-anchor="end" transform="translate(-7,93.00000000000001)" font-family="sans-serif" font-size="10px" fill="#000" opacity="1">0.4</text><text text-anchor="end" transform="translate(-7,62.999999999999986)" font-family="sans-serif" font-size="10px" fill="#000" opacity="1">0.6</text><text text-anchor="end" transform="translate(-7,32.99999999999999)" font-family="sans-serif" font-size="10px" fill="#000" opacity="1">0.8</text><text text-anchor="end" transform="translate(-7,3)" font-family="sans-serif" font-size="10px" fill="#000" opacity="1">1.0</text></g><g class="mark-rule role-axis-domain" pointer-events="none"><line transform="translate(0,300)" x2="0" y2="-300" stroke="#888" stroke-width="1" opacity="1"/></g></g><path class="foreground" aria-hidden="true" d="" pointer-events="none" display="none"/></g></g><g class="mark-group role-scope concat_0_layer_0_pathgroup" role="graphics-object" aria-roledescription="group mark container"><g transform="translate(0,0)"><path class="background" aria-hidden="true" d="M0,0h300v300h-300Z"/><g><g class="mark-line role-mark concat_0_layer_0_marks" role="graphics-object" aria-roledescription="line mark container"><path aria-label="x: 0; value: 0; variable: FT-1-cos" role="graphics-symbol" aria-roledescription="line mark" d="M0,150L3,140.581L6,131.2L9,121.893L12,112.697L15,103.647L18,94.781L21,86.133L24,77.737L27,69.626L30,61.832L33,54.386L36,47.318L39,40.655L42,34.423L45,28.647L48,23.351L51,18.554L54,14.276L57,10.534L60,7.342L63,4.713L66,2.657L69,1.183L72,0.296L75,0L78,0.296L81,1.183L84,2.657L87,4.713L90,7.342L93,10.534L96,14.276L99,18.554L102,23.351L105,28.647L108,34.423L111,40.655L114,47.318L117,54.386L120,61.832L123,69.626L126,77.737L129,86.133L132,94.781L135,103.647L138,112.697L141,121.893L144,131.2L147,140.581L150,150L153,159.419L156,168.8L159,178.107L162,187.303L165,196.353L168,205.219L171,213.867L174,222.263L177,230.374L180,238.168L183,245.614L186,252.682L189,259.345L192,265.577L195,271.353L198,276.649L201,281.446L204,285.724L207,289.466L210,292.658L213,295.287L216,297.343L219,298.817L222,299.704L225,300L228,299.704L231,298.817L234,297.343L237,295.287L240,292.658L243,289.466L246,285.724L249,281.446L252,276.649L255,271.353L258,265.577L261,259.345L264,252.682L267,245.614L270,238.168L273,230.374L276,222.263L279,213.867L282,205.219L285,196.353L288,187.303L291,178.107L294,168.8L297,159.419L300,150" stroke="#a6cee3" stroke-width="2"/></g></g><path class="foreground" aria-hidden="true" d="" display="none"/></g><g transform="translate(0,0)"><path class="background" aria-hidden="true" d="M0,0h300v300h-300Z"/><g><g class="mark-line role-mark concat_0_layer_0_marks" role="graphics-object" aria-roledescription="line mark container"><path aria-label="x: 0; value: 1; variable: FT-1-sin" role="graphics-symbol" aria-roledescription="line mark" d="M0,0L3,0.296L6,1.183L9,2.657L12,4.713L15,7.342L18,10.534L21,14.276L24,18.554L27,23.351L30,28.647L33,34.423L36,40.655L39,47.318L42,54.386L45,61.832L48,69.626L51,77.737L54,86.133L57,94.781L60,103.647L63,112.697L66,121.893L69,131.2L72,140.581L75,150L78,159.419L81,168.8L84,178.107L87,187.303L90,196.353L93,205.219L96,213.867L99,222.263L102,230.374L105,238.168L108,245.614L111,252.682L114,259.345L117,265.577L120,271.353L123,276.649L126,281.446L129,285.724L132,289.466L135,292.658L138,295.287L141,297.343L144,298.817L147,299.704L150,300L153,299.704L156,298.817L159,297.343L162,295.287L165,292.658L168,289.466L171,285.724L174,281.446L177,276.649L180,271.353L183,265.577L186,259.345L189,252.682L192,245.614L195,238.168L198,230.374L201,222.263L204,213.867L207,205.219L210,196.353L213,187.303L216,178.107L219,168.8L222,159.419L225,150L228,140.581L231,131.2L234,121.893L237,112.697L240,103.647L243,94.781L246,86.133L249,77.737L252,69.626L255,61.832L258,54.386L261,47.318L264,40.655L267,34.423L270,28.647L273,23.351L276,18.554L279,14.276L282,10.534L285,7.342L288,4.713L291,2.657L294,1.183L297,0.296L300,0" stroke="#1f78b4" stroke-width="2"/></g></g><path class="foreground" aria-hidden="true" d="" display="none"/></g><g transform="translate(0,0)"><path class="background" aria-hidden="true" d="M0,0h300v300h-300Z"/><g><g class="mark-line role-mark concat_0_layer_0_marks" role="graphics-object" aria-roledescription="line mark container"><path aria-label="x: 0; value: 0; variable: FT-2-cos" role="graphics-symbol" aria-roledescription="line mark" d="M0,150L3,137.467L6,125.131L9,113.188L12,101.825L15,91.221L18,81.545L21,72.949L24,65.567L27,59.517L30,54.894L33,51.771L36,50.197L39,50.197L42,51.771L45,54.894L48,59.517L51,65.567L54,72.949L57,81.545L60,91.221L63,101.825L66,113.188L69,125.131L72,137.467L75,150L78,162.533L81,174.869L84,186.812L87,198.175L90,208.779L93,218.455L96,227.051L99,234.433L102,240.483L105,245.106L108,248.229L111,249.803L114,249.803L117,248.229L120,245.106L123,240.483L126,234.433L129,227.051L132,218.455L135,208.779L138,198.175L141,186.812L144,174.869L147,162.533L150,150L153,137.467L156,125.131L159,113.188L162,101.825L165,91.221L168,81.545L171,72.949L174,65.567L177,59.517L180,54.894L183,51.771L186,50.197L189,50.197L192,51.771L195,54.894L198,59.517L201,65.567L204,72.949L207,81.545L210,91.221L213,101.825L216,113.188L219,125.131L222,137.467L225,150L228,162.533L231,174.869L234,186.812L237,198.175L240,208.779L243,218.455L246,227.051L249,234.433L252,240.483L255,245.106L258,248.229L261,249.803L264,249.803L267,248.229L270,245.106L273,240.483L276,234.433L279,227.051L282,218.455L285,208.779L288,198.175L291,186.812L294,174.869L297,162.533L300,150" stroke="#b2df8a" stroke-width="2"/></g></g><path class="foreground" aria-hidden="true" d="" display="none"/></g><g transform="translate(0,0)"><path class="background" aria-hidden="true" d="M0,0h300v300h-300Z"/><g><g class="mark-line role-mark concat_0_layer_0_marks" role="graphics-object" aria-roledescription="line mark container"><path aria-label="x: 0; value: 0.666666666667; variable: FT-2-sin" role="graphics-symbol" aria-roledescription="line mark" d="M0,50L3,50.789L6,53.142L9,57.022L12,62.369L15,69.098L18,77.103L21,86.258L24,96.417L27,107.422L30,119.098L33,131.262L36,143.721L39,156.279L42,168.738L45,180.902L48,192.578L51,203.583L54,213.742L57,222.897L60,230.902L63,237.631L66,242.978L69,246.858L72,249.211L75,250L78,249.211L81,246.858L84,242.978L87,237.631L90,230.902L93,222.897L96,213.742L99,203.583L102,192.578L105,180.902L108,168.738L111,156.279L114,143.721L117,131.262L120,119.098L123,107.422L126,96.417L129,86.258L132,77.103L135,69.098L138,62.369L141,57.022L144,53.142L147,50.789L150,50L153,50.789L156,53.142L159,57.022L162,62.369L165,69.098L168,77.103L171,86.258L174,96.417L177,107.422L180,119.098L183,131.262L186,143.721L189,156.279L192,168.738L195,180.902L198,192.578L201,203.583L204,213.742L207,222.897L210,230.902L213,237.631L216,242.978L219,246.858L222,249.211L225,250L228,249.211L231,246.858L234,242.978L237,237.631L240,230.902L243,222.897L246,213.742L249,203.583L252,192.578L255,180.902L258,168.738L261,156.279L264,143.721L267,131.262L270,119.098L273,107.422L276,96.417L279,86.258L282,77.103L285,69.098L288,62.369L291,57.022L294,53.142L297,50.789L300,50" stroke="#33a02c" stroke-width="2"/></g></g><path class="foreground" aria-hidden="true" d="" display="none"/></g><g transform="translate(0,0)"><path class="background" aria-hidden="true" d="M0,0h300v300h-300Z"/><g><g class="mark-line role-mark concat_0_layer_0_marks" role="graphics-object" aria-roledescription="line mark container"><path aria-label="x: 0; value: 0; variable: FT-3-cos" role="graphics-symbol" aria-roledescription="line mark" d="M0,150L3,137.508L6,125.458L9,114.278L12,104.364L15,96.066L18,89.678L21,85.428L24,83.465L27,83.859L30,86.596L33,91.58L36,98.632L39,107.505L42,117.883L45,129.399L48,141.644L51,154.186L54,166.579L57,178.385L60,189.186L63,198.598L66,206.289L69,211.985L72,215.486L75,216.667L78,215.486L81,211.985L84,206.289L87,198.598L90,189.186L93,178.385L96,166.579L99,154.186L102,141.644L105,129.399L108,117.883L111,107.505L114,98.632L117,91.58L120,86.596L123,83.859L126,83.465L129,85.428L132,89.678L135,96.066L138,104.364L141,114.278L144,125.458L147,137.508L150,150L153,162.492L156,174.542L159,185.722L162,195.636L165,203.934L168,210.322L171,214.572L174,216.535L177,216.141L180,213.404L183,208.42L186,201.368L189,192.495L192,182.117L195,170.601L198,158.356L201,145.814L204,133.421L207,121.615L210,110.814L213,101.402L216,93.711L219,88.015L222,84.514L225,83.333L228,84.514L231,88.015L234,93.711L237,101.402L240,110.814L243,121.615L246,133.421L249,145.814L252,158.356L255,170.601L258,182.117L261,192.495L264,201.368L267,208.42L270,213.404L273,216.141L276,216.535L279,214.572L282,210.322L285,203.934L288,195.636L291,185.722L294,174.542L297,162.492L300,150" stroke="#fb9a99" stroke-width="2"/></g></g><path class="foreground" aria-hidden="true" d="" display="none"/></g><g transform="translate(0,0)"><path class="background" aria-hidden="true" d="M0,0h300v300h-300Z"/><g><g class="mark-line role-mark concat_0_layer_0_marks" role="graphics-object" aria-roledescription="line mark container"><path aria-label="x: 0; value: 0.444444444444; variable: FT-3-sin" role="graphics-symbol" aria-roledescription="line mark" d="M0,83.333L3,84.514L6,88.015L9,93.711L12,101.402L15,110.814L18,121.615L21,133.421L24,145.814L27,158.356L30,170.601L33,182.117L36,192.495L39,201.368L42,208.42L45,213.404L48,216.141L51,216.535L54,214.572L57,210.322L60,203.934L63,195.636L66,185.722L69,174.542L72,162.492L75,150L78,137.508L81,125.458L84,114.278L87,104.364L90,96.066L93,89.678L96,85.428L99,83.465L102,83.859L105,86.596L108,91.58L111,98.632L114,107.505L117,117.883L120,129.399L123,141.644L126,154.186L129,166.579L132,178.385L135,189.186L138,198.598L141,206.289L144,211.985L147,215.486L150,216.667L153,215.486L156,211.985L159,206.289L162,198.598L165,189.186L168,178.385L171,166.579L174,154.186L177,141.644L180,129.399L183,117.883L186,107.505L189,98.632L192,91.58L195,86.596L198,83.859L201,83.465L204,85.428L207,89.678L210,96.066L213,104.364L216,114.278L219,125.458L222,137.508L225,150L228,162.492L231,174.542L234,185.722L237,195.636L240,203.934L243,210.322L246,214.572L249,216.535L252,216.141L255,213.404L258,208.42L261,201.368L264,192.495L267,182.117L270,170.601L273,158.356L276,145.814L279,133.421L282,121.615L285,110.814L288,101.402L291,93.711L294,88.015L297,84.514L300,83.333" stroke="#e31a1c" stroke-width="2"/></g></g><path class="foreground" aria-hidden="true" d="" display="none"/></g></g><g class="mark-rule role-mark concat_0_layer_1_marks" role="graphics-symbol" aria-roledescription="rule mark container"><line transform="translate(300,150)" x2="-300" y2="0" stroke="black" stroke-width="2" stroke-dasharray="5,5"/></g><g class="mark-group role-title"><g transform="translate(150,-37)"><path class="background" aria-hidden="true" d="M0,0h0v0h0Z" pointer-events="none"/><g><g class="mark-text role-title-text" role="graphics-symbol" aria-roledescription="title" aria-label="Title text 'Fourier Terms Order: 3'" pointer-events="none"><text text-anchor="middle" transform="translate(0,10)" font-family="sans-serif" font-size="13px" font-weight="bold" fill="#000" opacity="1"><tspan>Fourier Terms</tspan><tspan x="0" dy="15">Order: 3</tspan></text></g></g><path class="foreground" aria-hidden="true" d="" pointer-events="none" display="none"/></g></g></g><path class="foreground" aria-hidden="true" d="" display="none"/></g></g><g class="mark-group role-scope concat_1_group" role="graphics-object" aria-roledescription="group mark container"><g transform="translate(343,0)"><path class="background" aria-hidden="true" d="M0.5,0.5h300v300h-300Z" stroke="#ddd"/><g><g class="mark-group role-axis" aria-hidden="true"><g transform="translate(0.5,300.5)"><path class="background" aria-hidden="true" d="M0,0h0v0h0Z" pointer-events="none"/><g><g class="mark-rule role-axis-grid" pointer-events="none"><line transform="translate(0,-300)" x2="0" y2="300" stroke="#ddd" stroke-width="1" opacity="1"/><line transform="translate(30,-300)" x2="0" y2="300" stroke="#ddd" stroke-width="1" opacity="1"/><line transform="translate(60,-300)" x2="0" y2="300" stroke="#ddd" stroke-width="1" opacity="1"/><line transform="translate(90,-300)" x2="0" y2="300" stroke="#ddd" stroke-width="1" opacity="1"/><line transform="translate(120,-300)" x2="0" y2="300" stroke="#ddd" stroke-width="1" opacity="1"/><line transform="translate(150,-300)" x2="0" y2="300" stroke="#ddd" stroke-width="1" opacity="1"/><line transform="translate(180,-300)" x2="0" y2="300" stroke="#ddd" stroke-width="1" opacity="1"/><line transform="translate(210,-300)" x2="0" y2="300" stroke="#ddd" stroke-width="1" opacity="1"/><line transform="translate(240,-300)" x2="0" y2="300" stroke="#ddd" stroke-width="1" opacity="1"/><line transform="translate(270,-300)" x2="0" y2="300" stroke="#ddd" stroke-width="1" opacity="1"/><line transform="translate(300,-300)" x2="0" y2="300" stroke="#ddd" stroke-width="1" opacity="1"/></g></g><path class="foreground" aria-hidden="true" d="" pointer-events="none" display="none"/></g></g><g class="mark-group role-axis" aria-hidden="true"><g transform="translate(0.5,0.5)"><path class="background" aria-hidden="true" d="M0,0h0v0h0Z" pointer-events="none"/><g><g class="mark-rule role-axis-grid" pointer-events="none"><line transform="translate(0,277)" x2="300" y2="0" stroke="#ddd" stroke-width="1" opacity="1"/><line transform="translate(0,231)" x2="300" y2="0" stroke="#ddd" stroke-width="1" opacity="1"/><line transform="translate(0,185)" x2="300" y2="0" stroke="#ddd" stroke-width="1" opacity="1"/><line transform="translate(0,138)" x2="300" y2="0" stroke="#ddd" stroke-width="1" opacity="1"/><line transform="translate(0,92)" x2="300" y2="0" stroke="#ddd" stroke-width="1" opacity="1"/><line transform="translate(0,46)" x2="300" y2="0" stroke="#ddd" stroke-width="1" opacity="1"/><line transform="translate(0,0)" x2="300" y2="0" stroke="#ddd" stroke-width="1" opacity="1"/></g></g><path class="foreground" aria-hidden="true" d="" pointer-events="none" display="none"/></g></g><g class="mark-group role-axis" role="graphics-symbol" aria-roledescription="axis" aria-label="X-axis for a linear scale with values from 0.0 to 1.0"><g transform="translate(0.5,300.5)"><path class="background" aria-hidden="true" d="M0,0h0v0h0Z" pointer-events="none"/><g><g class="mark-rule role-axis-tick" pointer-events="none"><line transform="translate(0,0)" x2="0" y2="5" stroke="#888" stroke-width="1" opacity="1"/><line transform="translate(30,0)" x2="0" y2="5" stroke="#888" stroke-width="1" opacity="1"/><line transform="translate(60,0)" x2="0" y2="5" stroke="#888" stroke-width="1" opacity="1"/><line transform="translate(90,0)" x2="0" y2="5" stroke="#888" stroke-width="1" opacity="1"/><line transform="translate(120,0)" x2="0" y2="5" stroke="#888" stroke-width="1" opacity="1"/><line transform="translate(150,0)" x2="0" y2="5" stroke="#888" stroke-width="1" opacity="1"/><line transform="translate(180,0)" x2="0" y2="5" stroke="#888" stroke-width="1" opacity="1"/><line transform="translate(210,0)" x2="0" y2="5" stroke="#888" stroke-width="1" opacity="1"/><line transform="translate(240,0)" x2="0" y2="5" stroke="#888" stroke-width="1" opacity="1"/><line transform="translate(270,0)" x2="0" y2="5" stroke="#888" stroke-width="1" opacity="1"/><line transform="translate(300,0)" x2="0" y2="5" stroke="#888" stroke-width="1" opacity="1"/></g><g class="mark-text role-axis-label" pointer-events="none"><text text-anchor="start" transform="translate(0,15)" font-family="sans-serif" font-size="10px" fill="#000" opacity="1">0.0</text><text text-anchor="middle" transform="translate(30,15)" font-family="sans-serif" font-size="10px" fill="#000" opacity="1">0.1</text><text text-anchor="middle" transform="translate(60,15)" font-family="sans-serif" font-size="10px" fill="#000" opacity="1">0.2</text><text text-anchor="middle" transform="translate(90,15)" font-family="sans-serif" font-size="10px" fill="#000" opacity="1">0.3</text><text text-anchor="middle" transform="translate(120,15)" font-family="sans-serif" font-size="10px" fill="#000" opacity="1">0.4</text><text text-anchor="middle" transform="translate(150,15)" font-family="sans-serif" font-size="10px" fill="#000" opacity="1">0.5</text><text text-anchor="middle" transform="translate(180,15)" font-family="sans-serif" font-size="10px" fill="#000" opacity="1">0.6</text><text text-anchor="middle" transform="translate(210,15)" font-family="sans-serif" font-size="10px" fill="#000" opacity="1">0.7</text><text text-anchor="middle" transform="translate(240,15)" font-family="sans-serif" font-size="10px" fill="#000" opacity="1">0.8</text><text text-anchor="middle" transform="translate(270,15)" font-family="sans-serif" font-size="10px" fill="#000" opacity="1">0.9</text><text text-anchor="end" transform="translate(300,15)" font-family="sans-serif" font-size="10px" fill="#000" opacity="1">1.0</text></g><g class="mark-rule role-axis-domain" pointer-events="none"><line transform="translate(0,0)" x2="300" y2="0" stroke="#888" stroke-width="1" opacity="1"/></g></g><path class="foreground" aria-hidden="true" d="" pointer-events="none" display="none"/></g></g><g class="mark-group role-axis" role="graphics-symbol" aria-roledescription="axis" aria-label="Y-axis for a linear scale with values from −3 to 4"><g transform="translate(0.5,0.5)"><path class="background" aria-hidden="true" d="M0,0h0v0h0Z" pointer-events="none"/><g><g class="mark-rule role-axis-tick" pointer-events="none"><line transform="translate(0,277)" x2="-5" y2="0" stroke="#888" stroke-width="1" opacity="1"/><line transform="translate(0,231)" x2="-5" y2="0" stroke="#888" stroke-width="1" opacity="1"/><line transform="translate(0,185)" x2="-5" y2="0" stroke="#888" stroke-width="1" opacity="1"/><line transform="translate(0,138)" x2="-5" y2="0" stroke="#888" stroke-width="1" opacity="1"/><line transform="translate(0,92)" x2="-5" y2="0" stroke="#888" stroke-width="1" opacity="1"/><line transform="translate(0,46)" x2="-5" y2="0" stroke="#888" stroke-width="1" opacity="1"/><line transform="translate(0,0)" x2="-5" y2="0" stroke="#888" stroke-width="1" opacity="1"/></g><g class="mark-text role-axis-label" pointer-events="none"><text text-anchor="end" transform="translate(-7,279.92307692307696)" font-family="sans-serif" font-size="10px" fill="#000" opacity="1">−2</text><text text-anchor="end" transform="translate(-7,233.76923076923075)" font-family="sans-serif" font-size="10px" fill="#000" opacity="1">−1</text><text text-anchor="end" transform="translate(-7,187.6153846153846)" font-family="sans-serif" font-size="10px" fill="#000" opacity="1">0</text><text text-anchor="end" transform="translate(-7,141.46153846153848)" font-family="sans-serif" font-size="10px" fill="#000" opacity="1">1</text><text text-anchor="end" transform="translate(-7,95.3076923076923)" font-family="sans-serif" font-size="10px" fill="#000" opacity="1">2</text><text text-anchor="end" transform="translate(-7,49.15384615384615)" font-family="sans-serif" font-size="10px" fill="#000" opacity="1">3</text><text text-anchor="end" transform="translate(-7,3)" font-family="sans-serif" font-size="10px" fill="#000" opacity="1">4</text></g><g class="mark-rule role-axis-domain" pointer-events="none"><line transform="translate(0,300)" x2="0" y2="-300" stroke="#888" stroke-width="1" opacity="1"/></g></g><path class="foreground" aria-hidden="true" d="" pointer-events="none" display="none"/></g></g><g class="mark-group role-scope concat_1_layer_0_pathgroup" role="graphics-object" aria-roledescription="group mark container"><g transform="translate(0,0)"><path class="background" aria-hidden="true" d="M0,0h300v300h-300Z"/><g><g class="mark-line role-mark concat_1_layer_0_marks" role="graphics-object" aria-roledescription="line mark container"><path aria-label="x: 0; value: −0.696453083773; variable: 0" role="graphics-symbol" aria-roledescription="line mark" d="M0,216.759L3,221.268L6,226.08L9,231.135L12,236.349L15,241.625L18,246.854L21,251.919L24,256.704L27,261.093L30,264.98L33,268.269L36,270.886L39,272.772L42,273.894L45,274.244L48,273.839L51,272.722L54,270.958L57,268.638L60,265.87L63,262.774L66,259.486L69,256.142L72,252.88L75,249.832L78,247.119L81,244.845L84,243.094L87,241.923L90,241.362L93,241.411L96,242.04L99,243.186L102,244.756L105,246.632L108,248.668L111,250.702L114,252.556L117,254.042L120,254.974L123,255.165L126,254.443L129,252.652L132,249.659L135,245.36L138,239.686L141,232.602L144,224.115L147,214.271L150,203.157L153,190.899L156,177.66L159,163.635L162,149.048L165,134.143L168,119.183L171,104.435L174,90.173L177,76.658L180,64.142L183,52.856L186,43.002L189,34.75L192,28.236L195,23.552L198,20.75L201,19.837L204,20.78L207,23.501L210,27.887L213,33.789L216,41.031L219,49.412L222,58.715L225,68.713L228,79.175L231,89.875L234,100.598L237,111.143L240,121.332L243,131.014L246,140.066L249,148.399L252,155.954L255,162.708L258,168.668L261,173.872L264,178.384L267,182.289L270,185.692L273,188.708L276,191.46L279,194.072L282,196.664L285,199.345L288,202.212L291,205.343L294,208.793L297,212.595L300,216.759" stroke="#66c2a5" stroke-width="2"/></g></g><path class="foreground" aria-hidden="true" d="" display="none"/></g><g transform="translate(0,0)"><path class="background" aria-hidden="true" d="M0,0h300v300h-300Z"/><g><g class="mark-line role-mark concat_1_layer_0_marks" role="graphics-object" aria-roledescription="line mark container"><path aria-label="x: 0; value: −0.224440506532; variable: 1" role="graphics-symbol" aria-roledescription="line mark" d="M0,194.974L3,201.649L6,208.191L9,214.321L12,219.762L15,224.251L18,227.554L21,229.469L24,229.84L27,228.562L30,225.585L33,220.92L36,214.639L39,206.875L42,197.816L45,187.706L48,176.829L51,165.51L54,154.098L57,142.957L60,132.452L63,122.943L66,114.763L69,108.215L72,103.557L75,100.995L78,100.672L81,102.666L84,106.984L87,113.563L90,122.268L93,132.897L96,145.189L99,158.828L102,173.453L105,188.671L108,204.068L111,219.223L114,233.717L117,247.153L120,259.162L123,269.417L126,277.644L129,283.629L132,287.224L135,288.355L138,287.016L141,283.279L144,277.281L147,269.228L150,259.379L153,248.046L156,235.575L159,222.341L162,208.734L165,195.142L168,181.947L171,169.503L174,158.135L177,148.121L180,139.688L183,133.005L186,128.179L189,125.254L192,124.208L195,124.958L198,127.367L201,131.243L204,136.356L207,142.44L210,149.209L213,156.365L216,163.609L219,170.654L222,177.234L225,183.113L228,188.095L231,192.03L234,194.815L237,196.403L240,196.8L243,196.064L246,194.3L249,191.658L252,188.326L255,184.518L258,180.468L261,176.42L264,172.615L267,169.284L270,166.635L273,164.848L276,164.064L279,164.379L282,165.84L285,168.445L288,172.138L291,176.811L294,182.311L297,188.443L300,194.974" stroke="#fc8d62" stroke-width="2"/></g></g><path class="foreground" aria-hidden="true" d="" display="none"/></g><g transform="translate(0,0)"><path class="background" aria-hidden="true" d="M0,0h300v300h-300Z"/><g><g class="mark-line role-mark concat_1_layer_0_marks" role="graphics-object" aria-roledescription="line mark container"><path aria-label="x: 0; value: 0.59631904513; variable: 2" role="graphics-symbol" aria-roledescription="line mark" d="M0,157.093L3,164.002L6,171.11L9,178.321L12,185.54L15,192.675L18,199.638L21,206.345L24,212.718L27,218.685L30,224.179L33,229.139L36,233.512L39,237.248L42,240.309L45,242.658L48,244.269L51,245.12L54,245.201L57,244.504L60,243.034L63,240.801L66,237.825L69,234.136L72,229.771L75,224.778L78,219.214L81,213.146L84,206.648L87,199.805L90,192.709L93,185.459L96,178.161L99,170.923L102,163.859L105,157.082L108,150.707L111,144.842L114,139.594L117,135.061L120,131.332L123,128.485L126,126.584L129,125.677L132,125.797L135,126.958L138,129.153L141,132.36L144,136.533L147,141.609L150,147.506L153,154.124L156,161.348L159,169.049L162,177.087L165,185.313L168,193.574L171,201.712L174,209.571L177,217L180,223.854L183,229.999L186,235.313L189,239.693L192,243.051L195,245.32L198,246.454L201,246.432L204,245.251L207,242.936L210,239.531L213,235.101L216,229.731L219,223.524L222,216.599L225,209.084L228,201.122L231,192.858L234,184.444L237,176.029L240,167.764L243,159.791L246,152.244L249,145.249L252,138.918L255,133.346L258,128.617L261,124.795L264,121.926L267,120.041L270,119.152L273,119.254L276,120.326L279,122.332L282,125.224L285,128.939L288,133.406L291,138.545L294,144.268L297,150.482L300,157.093" stroke="#8da0cb" stroke-width="2"/></g></g><path class="foreground" aria-hidden="true" d="" display="none"/></g><g transform="translate(0,0)"><path class="background" aria-hidden="true" d="M0,0h300v300h-300Z"/><g><g class="mark-line role-mark concat_1_layer_0_marks" role="graphics-object" aria-roledescription="line mark container"><path aria-label="x: 0; value: 0.342085775923; variable: 3" role="graphics-symbol" aria-roledescription="line mark" d="M0,168.827L3,163.628L6,159.299L9,155.927L12,153.562L15,152.22L18,151.879L21,152.48L24,153.93L27,156.106L30,158.86L33,162.022L36,165.408L39,168.83L42,172.095L45,175.02L48,177.435L51,179.191L54,180.164L57,180.261L60,179.424L63,177.63L66,174.897L69,171.278L72,166.863L75,161.778L78,156.175L81,150.231L84,144.143L87,138.118L90,132.366L93,127.097L96,122.509L99,118.783L102,116.075L105,114.514L108,114.193L111,115.168L114,117.457L117,121.035L120,125.839L123,131.767L126,138.682L129,146.416L132,154.778L135,163.556L138,172.529L141,181.47L144,190.153L147,198.367L150,205.915L153,212.625L156,218.355L159,222.996L162,226.475L165,228.762L168,229.862L171,229.824L174,228.73L177,226.698L180,223.874L183,220.429L186,216.551L189,212.438L192,208.291L195,204.308L198,200.676L201,197.562L204,195.114L207,193.445L210,192.641L213,192.748L216,193.777L219,195.701L222,198.455L225,201.942L228,206.033L231,210.576L234,215.396L237,220.306L240,225.113L243,229.623L246,233.649L249,237.019L252,239.583L255,241.214L258,241.818L261,241.334L264,239.737L267,237.041L270,233.295L273,228.584L276,223.027L279,216.768L282,209.977L285,202.84L288,195.554L291,188.318L294,181.33L297,174.776L300,168.827" stroke="#e78ac3" stroke-width="2"/></g></g><path class="foreground" aria-hidden="true" d="" display="none"/></g><g transform="translate(0,0)"><path class="background" aria-hidden="true" d="M0,0h300v300h-300Z"/><g><g class="mark-line role-mark concat_1_layer_0_marks" role="graphics-object" aria-roledescription="line mark container"><path aria-label="x: 0; value: −0.281158349482; variable: 4" role="graphics-symbol" aria-roledescription="line mark" d="M0,197.592L3,200.772L6,203.738L9,206.455L12,208.895L15,211.037L18,212.873L21,214.404L24,215.641L27,216.609L30,217.343L33,217.89L36,218.304L39,218.649L42,218.992L45,219.405L48,219.96L51,220.725L54,221.764L57,223.132L60,224.875L63,227.023L66,229.594L69,232.585L72,235.98L75,239.742L78,243.814L81,248.126L84,252.588L87,257.097L90,261.538L93,265.787L96,269.715L99,273.189L102,276.081L105,278.264L108,279.624L111,280.059L114,279.482L117,277.826L120,275.045L123,271.118L126,266.046L129,259.857L132,252.604L135,244.363L138,235.232L141,225.331L144,214.797L147,203.78L150,192.442L153,180.95L156,169.476L159,158.188L162,147.249L165,136.814L168,127.023L171,118L174,109.851L177,102.661L180,96.493L183,91.386L186,87.357L189,84.399L192,82.487L195,81.574L198,81.596L201,82.474L204,84.12L207,86.435L210,89.317L213,92.662L216,96.366L219,100.33L222,104.465L225,108.687L228,112.925L231,117.122L234,121.231L237,125.221L240,129.072L243,132.778L246,136.343L249,139.78L252,143.111L255,146.361L258,149.562L261,152.742L264,155.932L267,159.156L270,162.437L273,165.788L276,169.217L279,172.721L282,176.29L285,179.907L288,183.545L291,187.171L294,190.749L297,194.237L300,197.592" stroke="#a6d854" stroke-width="2"/></g></g><path class="foreground" aria-hidden="true" d="" display="none"/></g></g><g class="mark-rule role-mark concat_1_layer_1_marks" role="graphics-symbol" aria-roledescription="rule mark container"><line transform="translate(300,184.6153846153846)" x2="-300" y2="0" stroke="black" stroke-width="2" stroke-dasharray="5,5"/></g><g class="mark-group role-title"><g transform="translate(150,-37)"><path class="background" aria-hidden="true" d="M0,0h0v0h0Z" pointer-events="none"/><g><g class="mark-text role-title-text" role="graphics-symbol" aria-roledescription="title" aria-label="Title text 'Random Realizations of Fourier Features'" pointer-events="none"><text text-anchor="middle" transform="translate(0,10)" font-family="sans-serif" font-size="13px" font-weight="bold" fill="#000" opacity="1"><tspan>Random Realizations of</tspan><tspan x="0" dy="15">Fourier Features</tspan></text></g></g><path class="foreground" aria-hidden="true" d="" pointer-events="none" display="none"/></g></g></g><path class="foreground" aria-hidden="true" d="" display="none"/></g></g><g class="mark-group role-legend" role="graphics-symbol" aria-roledescription="legend" aria-label="Symbol legend titled 'Term' for stroke color with 6 values: FT-1-cos, FT-1-sin, FT-2-cos, FT-2-sin, FT-3-cos, FT-3-sin"><g transform="translate(-102,0)"><path class="background" aria-hidden="true" d="M0,0h56v92h-56Z" pointer-events="none"/><g><g class="mark-group role-legend-entry"><g transform="translate(0,16)"><path class="background" aria-hidden="true" d="M0,0h0v0h0Z" pointer-events="none"/><g><g class="mark-group role-scope" role="graphics-object" aria-roledescription="group mark container"><g transform="translate(0,0)"><path class="background" aria-hidden="true" d="M0,0h55.453125v11h-55.453125Z" pointer-events="none" opacity="1"/><g><g class="mark-symbol role-legend-symbol" pointer-events="none"><path transform="translate(6,6)" d="M-5,0L5,0" stroke="#a6cee3" stroke-width="1.5" opacity="1"/></g><g class="mark-text role-legend-label" pointer-events="none"><text text-anchor="start" transform="translate(16,9)" font-family="sans-serif" font-size="10px" fill="#000" opacity="1">FT-1-cos</text></g></g><path class="foreground" aria-hidden="true" d="" pointer-events="none" display="none"/></g><g transform="translate(0,13)"><path class="background" aria-hidden="true" d="M0,0h55.453125v11h-55.453125Z" pointer-events="none" opacity="1"/><g><g class="mark-symbol role-legend-symbol" pointer-events="none"><path transform="translate(6,6)" d="M-5,0L5,0" stroke="#1f78b4" stroke-width="1.5" opacity="1"/></g><g class="mark-text role-legend-label" pointer-events="none"><text text-anchor="start" transform="translate(16,9)" font-family="sans-serif" font-size="10px" fill="#000" opacity="1">FT-1-sin</text></g></g><path class="foreground" aria-hidden="true" d="" pointer-events="none" display="none"/></g><g transform="translate(0,26)"><path class="background" aria-hidden="true" d="M0,0h55.453125v11h-55.453125Z" pointer-events="none" opacity="1"/><g><g class="mark-symbol role-legend-symbol" pointer-events="none"><path transform="translate(6,6)" d="M-5,0L5,0" stroke="#b2df8a" stroke-width="1.5" opacity="1"/></g><g class="mark-text role-legend-label" pointer-events="none"><text text-anchor="start" transform="translate(16,9)" font-family="sans-serif" font-size="10px" fill="#000" opacity="1">FT-2-cos</text></g></g><path class="foreground" aria-hidden="true" d="" pointer-events="none" display="none"/></g><g transform="translate(0,39)"><path class="background" aria-hidden="true" d="M0,0h55.453125v11h-55.453125Z" pointer-events="none" opacity="1"/><g><g class="mark-symbol role-legend-symbol" pointer-events="none"><path transform="translate(6,6)" d="M-5,0L5,0" stroke="#33a02c" stroke-width="1.5" opacity="1"/></g><g class="mark-text role-legend-label" pointer-events="none"><text text-anchor="start" transform="translate(16,9)" font-family="sans-serif" font-size="10px" fill="#000" opacity="1">FT-2-sin</text></g></g><path class="foreground" aria-hidden="true" d="" pointer-events="none" display="none"/></g><g transform="translate(0,52)"><path class="background" aria-hidden="true" d="M0,0h55.453125v11h-55.453125Z" pointer-events="none" opacity="1"/><g><g class="mark-symbol role-legend-symbol" pointer-events="none"><path transform="translate(6,6)" d="M-5,0L5,0" stroke="#fb9a99" stroke-width="1.5" opacity="1"/></g><g class="mark-text role-legend-label" pointer-events="none"><text text-anchor="start" transform="translate(16,9)" font-family="sans-serif" font-size="10px" fill="#000" opacity="1">FT-3-cos</text></g></g><path class="foreground" aria-hidden="true" d="" pointer-events="none" display="none"/></g><g transform="translate(0,65)"><path class="background" aria-hidden="true" d="M0,0h55.453125v11h-55.453125Z" pointer-events="none" opacity="1"/><g><g class="mark-symbol role-legend-symbol" pointer-events="none"><path transform="translate(6,6)" d="M-5,0L5,0" stroke="#e31a1c" stroke-width="1.5" opacity="1"/></g><g class="mark-text role-legend-label" pointer-events="none"><text text-anchor="start" transform="translate(16,9)" font-family="sans-serif" font-size="10px" fill="#000" opacity="1">FT-3-sin</text></g></g><path class="foreground" aria-hidden="true" d="" pointer-events="none" display="none"/></g></g></g><path class="foreground" aria-hidden="true" d="" pointer-events="none" display="none"/></g></g><g class="mark-text role-legend-title" pointer-events="none"><text text-anchor="start" transform="translate(0,9)" font-family="sans-serif" font-size="11px" font-weight="bold" fill="#000" opacity="1">Term</text></g></g><path class="foreground" aria-hidden="true" d="" pointer-events="none" display="none"/></g></g></g><path class="foreground" aria-hidden="true" d="" display="none"/></g></g></g></svg>